<?xml version="1.0" standalone="no"?>
<!DOCTYPE svg PUBLIC "-//W3C//DTD SVG 20010904//EN"
 "http://www.w3.org/TR/2001/REC-SVG-20010904/DTD/svg10.dtd">
<svg version="1.0" xmlns="http://www.w3.org/2000/svg"
 width="1280.000000pt" height="1280.000000pt" viewBox="0 0 1280.000000 1280.000000"
 preserveAspectRatio="xMidYMid meet">
<metadata>
Created by potrace 1.11, written by Peter Selinger 2001-2013
</metadata>
<g transform="translate(0.000000,1280.000000) scale(0.100000,-0.100000)"
fill="#000000" stroke="none">
<path d="M6388 10994 c-4 -3 -34 -10 -59 -13 -3 -1 -15 -10 -27 -21 -12 -12
-22 -19 -22 -16 0 2 -13 -8 -28 -22 -29 -28 -81 -76 -241 -222 -52 -47 -107
-97 -123 -112 -17 -16 -34 -28 -39 -28 -5 0 -9 -7 -9 -15 0 -8 -4 -15 -9 -15
-5 0 -26 -17 -48 -37 -22 -21 -59 -56 -84 -78 -68 -61 -155 -141 -268 -245
-57 -52 -116 -106 -131 -120 -15 -14 -55 -50 -89 -80 -34 -30 -86 -79 -117
-107 -31 -29 -87 -81 -126 -115 -38 -35 -94 -87 -124 -115 -31 -29 -57 -53
-59 -53 -1 0 -30 -26 -64 -57 -33 -32 -90 -85 -127 -118 -36 -33 -80 -73 -98
-90 -18 -16 -70 -64 -115 -105 -46 -41 -100 -91 -121 -110 -67 -62 -134 -123
-235 -215 -54 -49 -113 -103 -130 -120 -18 -16 -63 -58 -101 -92 -38 -33 -85
-76 -104 -95 -20 -18 -78 -71 -129 -118 -52 -47 -110 -100 -130 -119 -20 -18
-64 -59 -99 -90 -35 -31 -83 -74 -106 -96 -24 -22 -83 -76 -131 -120 -48 -44
-102 -93 -120 -110 -17 -16 -64 -59 -104 -95 -41 -36 -92 -83 -116 -105 -23
-22 -79 -74 -125 -115 -46 -41 -101 -92 -122 -112 -21 -21 -41 -38 -43 -38 -2
0 -24 -19 -48 -42 -62 -61 -233 -218 -265 -244 -15 -13 -55 -49 -89 -81 -34
-32 -94 -87 -133 -123 -39 -36 -91 -83 -114 -105 -24 -22 -86 -78 -137 -125
-162 -147 -180 -164 -213 -195 -57 -53 -76 -86 -76 -126 0 -58 14 -79 118
-175 52 -49 112 -105 133 -124 21 -19 70 -64 109 -100 40 -36 104 -95 143
-131 40 -36 92 -83 116 -105 25 -21 63 -57 86 -79 23 -22 77 -71 120 -110 43
-38 93 -83 110 -100 17 -16 74 -68 125 -115 52 -47 121 -110 154 -141 34 -32
80 -74 104 -94 23 -21 62 -56 86 -79 23 -22 73 -68 110 -101 37 -33 91 -82
120 -110 29 -27 88 -81 131 -120 42 -38 92 -83 109 -100 18 -16 70 -64 116
-105 46 -41 102 -93 125 -115 23 -22 81 -76 130 -120 49 -44 96 -87 105 -95
48 -44 266 -244 351 -322 14 -12 70 -63 124 -113 54 -49 120 -110 148 -135 27
-25 74 -68 103 -96 30 -28 54 -50 54 -48 0 2 26 -21 58 -51 31 -30 73 -71 93
-90 21 -19 42 -35 47 -35 6 0 14 -9 17 -20 3 -11 10 -20 15 -20 4 0 24 -15 43
-32 18 -18 76 -71 127 -118 51 -47 105 -96 120 -110 15 -14 64 -58 108 -99 45
-40 98 -90 120 -110 21 -20 76 -70 121 -111 98 -88 127 -114 202 -184 30 -28
95 -87 144 -131 49 -44 105 -96 125 -115 20 -19 61 -57 91 -84 56 -50 200
-182 279 -256 63 -59 117 -93 134 -87 9 4 18 2 21 -3 8 -13 106 25 127 50 9
11 18 20 21 20 2 0 22 17 44 37 21 21 81 76 132 123 52 47 115 105 142 130 26
25 80 74 120 110 40 36 84 76 99 90 43 39 189 172 220 200 72 66 220 200 268
245 30 28 67 61 82 75 84 76 209 190 247 226 24 22 69 64 101 91 31 28 75 69
98 90 22 21 78 72 124 113 46 41 95 86 110 100 15 14 62 57 105 95 42 39 99
90 125 115 26 25 80 74 120 110 40 36 89 81 109 100 20 19 66 61 101 92 36 31
93 83 127 115 34 32 92 85 128 118 37 33 79 71 94 85 62 57 238 218 279 255
25 22 61 56 82 75 20 19 77 71 125 115 49 44 116 105 149 136 34 31 83 76 110
100 28 24 64 58 82 74 17 17 66 62 109 100 105 96 117 107 236 216 57 52 126
115 154 140 27 24 61 55 76 69 14 14 61 57 103 95 43 39 90 81 105 95 15 14
67 61 115 105 48 44 110 100 137 125 27 25 83 77 125 115 118 107 187 175 178
175 -4 0 -3 5 4 12 16 16 15 72 0 101 -14 25 -82 94 -174 177 -180 164 -242
221 -275 251 -20 19 -60 56 -90 83 -46 41 -113 103 -259 236 -15 14 -67 61
-115 105 -49 44 -103 94 -120 110 -18 17 -72 66 -120 110 -49 44 -101 91 -115
105 -25 23 -178 163 -239 218 -14 13 -66 61 -116 107 -49 45 -112 102 -139
126 -91 83 -103 94 -191 174 -48 44 -104 96 -125 115 -21 19 -70 64 -110 100
-39 36 -88 81 -109 100 -34 32 -192 177 -245 225 -100 90 -228 207 -263 243
-24 23 -46 42 -49 42 -3 0 -25 19 -49 43 -24 23 -76 71 -116 107 -39 36 -106
97 -147 135 -113 104 -124 114 -202 184 -39 36 -88 81 -109 100 -20 20 -64 60
-97 90 -32 29 -82 74 -109 100 -28 25 -90 82 -139 126 -48 44 -103 94 -120
110 -18 17 -59 54 -92 84 -97 89 -223 203 -272 249 -26 24 -78 72 -116 105
-38 34 -86 78 -106 97 -21 19 -70 64 -109 100 -40 36 -89 81 -110 100 -105 97
-158 143 -182 156 -28 14 -75 25 -81 18z m855 -1698 c19 -13 60 -48 92 -77
106 -99 122 -114 195 -179 39 -36 97 -89 127 -117 30 -29 56 -53 58 -53 2 0
19 -15 37 -32 19 -18 79 -73 133 -123 55 -49 121 -111 147 -136 26 -26 48 -45
48 -43 0 2 20 -16 44 -39 62 -58 126 -117 236 -217 51 -47 109 -100 128 -117
18 -18 38 -33 43 -33 6 0 7 -4 4 -10 -3 -5 -2 -10 3 -10 5 0 22 -12 39 -27 84
-78 156 -144 219 -199 38 -34 81 -72 95 -85 14 -13 65 -60 114 -104 215 -195
243 -224 250 -263 4 -23 3 -38 -4 -40 -6 -2 -11 -9 -11 -15 0 -10 -65 -76
-167 -166 -26 -24 -90 -82 -142 -130 -52 -47 -105 -95 -118 -107 -61 -55 -200
-183 -234 -214 -20 -19 -65 -60 -98 -90 -34 -30 -83 -75 -109 -100 -78 -72
-130 -120 -247 -225 -60 -55 -122 -111 -136 -125 -15 -14 -59 -54 -99 -90 -40
-36 -94 -85 -120 -110 -26 -25 -82 -76 -125 -115 -43 -38 -95 -86 -115 -105
-20 -19 -70 -64 -110 -100 -40 -36 -85 -76 -99 -90 -14 -14 -63 -59 -109 -100
-46 -41 -106 -96 -133 -122 -28 -27 -52 -48 -53 -48 -2 0 -26 -21 -53 -47 -28
-27 -85 -79 -128 -118 -42 -38 -92 -83 -110 -100 -91 -85 -225 -207 -264 -241
-24 -22 -63 -57 -86 -79 -24 -22 -75 -69 -115 -105 -39 -36 -97 -89 -128 -118
-31 -30 -88 -81 -125 -114 -37 -34 -82 -75 -101 -92 -18 -17 -70 -65 -116
-106 -46 -41 -103 -94 -128 -117 -24 -24 -46 -43 -47 -43 -1 0 -20 -17 -42
-38 -95 -91 -197 -178 -225 -193 -22 -11 -41 -14 -65 -9 -38 9 -45 14 -123 86
-30 28 -84 77 -120 109 -36 32 -99 90 -141 129 -41 39 -90 82 -107 96 -17 14
-31 30 -32 37 0 6 -8 14 -18 17 -9 3 -38 25 -64 48 -25 24 -76 70 -113 103
-36 33 -88 80 -114 105 -26 25 -84 79 -130 120 -45 41 -101 93 -124 115 -53
49 -225 207 -291 266 -27 24 -76 70 -108 102 -32 31 -60 57 -63 57 -2 0 -19
15 -38 33 -19 17 -76 71 -128 118 -52 47 -107 98 -124 114 -16 15 -67 61 -113
103 -99 91 -115 117 -97 159 14 33 23 43 154 163 145 132 165 150 174 150 4 0
7 7 7 15 0 8 4 15 9 15 4 0 21 12 37 28 25 23 131 119 248 225 17 16 50 46 73
68 22 21 46 39 51 39 6 0 12 5 14 11 6 18 74 22 105 6 15 -8 48 -34 73 -57 75
-70 142 -131 240 -220 51 -47 108 -98 125 -115 18 -16 56 -50 85 -75 29 -25
70 -61 90 -80 20 -19 72 -66 114 -105 43 -38 104 -95 136 -125 32 -30 89 -83
127 -116 37 -34 89 -81 114 -105 25 -24 92 -87 149 -139 57 -52 122 -112 145
-132 22 -21 42 -38 45 -38 8 0 154 131 298 268 24 23 46 42 48 42 1 0 23 19
47 43 25 23 85 78 133 122 49 44 111 101 139 127 27 25 70 64 95 87 24 23 48
41 52 41 4 0 8 7 8 15 0 8 4 15 8 15 5 0 22 12 39 28 87 77 201 181 233 212
20 19 71 67 114 105 43 39 93 84 111 100 17 17 69 64 114 105 46 41 97 89 115
105 17 17 74 68 125 115 52 47 110 100 130 119 20 18 59 53 86 78 47 42 187
171 294 271 l46 43 -41 37 c-22 20 -73 66 -113 102 -39 36 -96 88 -125 115
-30 28 -89 82 -131 120 -43 39 -102 93 -131 121 -30 28 -54 49 -54 48 0 -1
-15 12 -33 29 -19 18 -73 68 -121 112 -48 44 -94 86 -103 94 -12 12 -20 8 -56
-25 -22 -22 -46 -43 -53 -49 -6 -5 -56 -51 -110 -101 -55 -50 -111 -102 -126
-115 -14 -13 -65 -60 -113 -104 -48 -44 -100 -91 -115 -105 -134 -122 -219
-200 -247 -227 -18 -18 -33 -31 -33 -29 0 2 -24 -19 -53 -48 -29 -28 -86 -80
-126 -116 -40 -36 -97 -87 -126 -115 -29 -27 -86 -79 -126 -115 -40 -36 -94
-85 -120 -110 -26 -25 -72 -67 -103 -95 -32 -27 -76 -68 -100 -90 -23 -22 -84
-78 -135 -125 -51 -47 -121 -110 -155 -142 -113 -104 -131 -118 -163 -124 -18
-3 -43 -4 -56 0 -27 6 -50 25 -221 181 -294 267 -314 287 -325 318 -14 35 2
71 50 117 42 40 178 165 258 237 29 26 74 68 100 93 26 25 72 67 102 94 29 26
92 82 137 125 46 42 96 87 112 101 15 14 68 62 117 107 49 46 103 95 120 110
17 16 72 66 123 113 120 110 154 142 240 220 40 36 87 79 104 95 18 17 72 66
120 110 48 44 102 94 120 110 18 17 73 66 121 110 48 44 102 94 120 110 18 17
74 68 126 115 51 47 120 110 153 141 34 31 73 67 87 80 15 13 68 62 119 109
51 47 111 101 133 120 22 19 61 55 87 80 26 25 73 68 104 95 31 28 65 57 74
66 36 34 89 36 135 5z m-862 -4904 c23 -15 83 -68 224 -197 18 -16 77 -70 131
-120 53 -49 110 -101 125 -115 15 -14 59 -54 99 -90 40 -36 94 -85 120 -110
26 -25 77 -72 113 -105 73 -66 83 -83 78 -141 -1 -16 -84 -100 -206 -209 -37
-33 -81 -73 -99 -90 -17 -16 -74 -68 -125 -115 -52 -47 -106 -96 -121 -110
-204 -189 -222 -203 -269 -207 -41 -3 -77 19 -156 92 -60 56 -191 177 -260
240 -27 26 -67 61 -87 78 -21 17 -38 37 -38 44 0 7 -6 13 -12 13 -7 0 -36 22
-64 48 -28 26 -86 79 -128 117 -213 193 -223 208 -197 265 9 19 34 50 55 70
102 92 280 257 312 288 13 12 25 22 27 22 3 0 41 35 86 78 45 43 81 77 81 75
0 -3 15 10 33 29 154 155 218 190 278 150z"/>
</g>
</svg>
