<?xml version="1.0"?>
<svg width="640" height="480" xmlns="http://www.w3.org/2000/svg" xmlns:svg="http://www.w3.org/2000/svg" xmlns:xlink="http://www.w3.org/1999/xlink">
 <!-- Created with SVG-edit - https://github.com/SVG-Edit/svgedit-->
 <defs>
  <symbol id="svg_3" viewBox="0 0 225 225" xmlns="http://www.w3.org/2000/svg" xmlns:xlink="http://www.w3.org/1999/xlink">
   <g id="svg_1" transform="matrix( 1, 0, 0, 1, 0,0) ">
    <g id="svg_6">
     <g id="svg_2">
      <path d="m210.1,113.7c1.3,-1.3 1.3,-2.6 0,-4l-94.4,-94.3c-1.2,-1.2 -2.4,-1.3 -3.6,-0.3c-0.1,0.1 -0.2,0.2 -0.4,0.3l-94.3,94.2c-1.3,1.4 -1.3,2.7 0,4.1l94.3,94.3c0.2,0.2 0.3,0.3 0.4,0.4c1.2,0.9 2.4,0.7 3.6,-0.5l94.4,-94.2m-49.7,-34.3l8.6,8.6c1.4,1.4 1.4,2.9 0,4.3l-74.3,74.2c-1.4,1.4 -2.8,1.4 -4.3,0l-8.6,-8.6c-0.1,-0.1 -0.2,-0.3 -0.3,-0.5c-0.4,-0.2 -0.7,-0.5 -1,-0.7l-18,-18.1c-0.2,-0.2 -0.5,-0.5 -0.7,-0.8c-0.2,-0.1 -0.4,-0.2 -0.5,-0.4l-8.6,-8.6c-1.5,-1.4 -1.5,-2.8 -0.1,-4.3l13.5,-13.5c1.4,-1.4 2.9,-1.4 4.3,0l8.6,8.6c0.2,0.2 0.3,0.3 0.5,0.5c0.3,0.2 0.5,0.5 0.8,0.7l17.1,17.2l42.9,-42.9l-16.2,-16.2l-38.3,38.3c-1.4,1.4 -2.8,1.4 -4.3,0l-8.6,-8.6c-1.5,-1.4 -1.5,-2.8 -0.1,-4.3l54,-54c1.4,-1.5 2.9,-1.5 4.3,-0.1l8.6,8.6c0.1,0.1 0.2,0.2 0.3,0.3c0.2,0.2 0.4,0.4 0.6,0.6l18.7,18.7c0.2,0.2 0.4,0.4 0.6,0.6c0.2,0.2 0.3,0.3 0.5,0.4m-122.6,30.2l13.5,-13.5c1.4,-1.4 2.8,-1.4 4.3,0.1l8.6,8.6c1.5,1.4 1.5,2.8 0.1,4.3l-13.5,13.5c-1.4,1.4 -2.9,1.4 -4.3,0l-8.6,-8.6c-1.5,-1.5 -1.5,-2.9 -0.1,-4.4m46.7,-25c1.5,1.4 1.5,2.9 0,4.3l-13.5,13.5c-1.4,1.4 -2.9,1.4 -4.3,0l-8.7,-8.6c-1.4,-1.5 -1.4,-2.9 0,-4.3l13.5,-13.5c1.4,-1.4 2.8,-1.4 4.3,0.1l8.7,8.5m2.4,-2.4l-8.6,-8.6c-1.4,-1.5 -1.4,-3 0.1,-4.4l13.4,-13.4c1.5,-1.5 2.9,-1.5 4.4,0l8.6,8.6c1.5,1.4 1.5,2.9 0,4.3l-13.5,13.4c-1.5,1.5 -2.9,1.5 -4.4,0.1m38.1,-38.1c1.5,1.4 1.5,2.9 0.1,4.3l-13.5,13.4c-1.5,1.5 -3,1.5 -4.4,0.1l-8.6,-8.6c-1.4,-1.5 -1.4,-3 0.1,-4.4l13.6,-13.5c1.4,-1.4 2.8,-1.3 4.2,0.1l8.5,8.6m-12.8,109.8c0.8,-0.1 1.5,0.3 2.3,1.1l6.9,6.9c0.1,0.1 0.2,0.2 0.3,0.3l8.6,8.6c1.4,1.4 1.4,2.9 0,4.3l-13.5,13.5c-1.4,1.4 -2.8,1.4 -4.3,0l-8.6,-8.6c-0.1,-0.1 -0.2,-0.2 -0.2,-0.4l-0.1,0l-0.1,0l-6.8,-6.8c-1.4,-1.4 -1.4,-2.8 0,-4.3l13.5,-13.5c0.6,-0.7 1.3,-1 2,-1.1z" id="svg_7"/>
     </g>
    </g>
   </g>
  </symbol>
 </defs>
 <g class="layer">
  <title>Layer 1</title>
  <use fill="#000000" id="svg_4" stroke="#000000" transform="matrix(1.20084 0 0 1.09883 52.6869 -2.83009)" x="-100.100995" xlink:href="#svg_3" y="-17.793356"/>
  <g id="svg_5"/>
  <rect fill="#000000" height="312.684804" id="svg_24" stroke="#000000" stroke-dasharray="null" stroke-linecap="null" stroke-linejoin="null" stroke-width="5" transform="rotate(47.2899 226.546 156.307)" width="66.082798" x="193.504118" y="-0.035379"/>
  <g id="svg_18"/>
 </g>
</svg>