<svg width="59.025" height="43.498" version="1.1" xmlns="http://www.w3.org/2000/svg" xmlns:xlink="http://www.w3.org/1999/xlink"><defs><symbol id="svg_3" viewBox="0 0 225 225"><path d="m210.1 113.7c1.3-1.3 1.3-2.6 0-4l-94.4-94.3c-1.2-1.2-2.4-1.3-3.6-0.3-0.1 0.1-0.2 0.2-0.4 0.3l-94.3 94.2c-1.3 1.4-1.3 2.7 0 4.1l94.7 94.7c1.2 0.9 2.4 0.7 3.6-0.5l94.4-94.2m-49.7-34.3 8.6 8.6c1.4 1.4 1.4 2.9 0 4.3l-74.3 74.2c-1.4 1.4-2.8 1.4-4.3 0l-8.6-8.6c-0.1-0.1-0.2-0.3-0.3-0.5-0.4-0.2-0.7-0.5-1-0.7l-18-18.1c-0.2-0.2-0.5-0.5-0.7-0.8-0.2-0.1-0.4-0.2-0.5-0.4l-8.6-8.6c-1.5-1.4-1.5-2.8-0.1-4.3l13.5-13.5c1.4-1.4 2.9-1.4 4.3 0l9.1 9.1c0.3 0.2 0.5 0.5 0.8 0.7l17.1 17.2 42.9-42.9-16.2-16.2-38.3 38.3c-1.4 1.4-2.8 1.4-4.3 0l-8.6-8.6c-1.5-1.4-1.5-2.8-0.1-4.3l54-54c1.4-1.5 2.9-1.5 4.3-0.1l28.8 28.8c0.2 0.2 0.3 0.3 0.5 0.4m-122.6 30.2 13.5-13.5c1.4-1.4 2.8-1.4 4.3 0.1l8.6 8.6c1.5 1.4 1.5 2.8 0.1 4.3l-13.5 13.5c-1.4 1.4-2.9 1.4-4.3 0l-8.6-8.6c-1.5-1.5-1.5-2.9-0.1-4.4m46.7-25c1.5 1.4 1.5 2.9 0 4.3l-13.5 13.5c-1.4 1.4-2.9 1.4-4.3 0l-8.7-8.6c-1.4-1.5-1.4-2.9 0-4.3l13.5-13.5c1.4-1.4 2.8-1.4 4.3 0.1l8.7 8.5m2.4-2.4-8.6-8.6c-1.4-1.5-1.4-3 0.1-4.4l13.4-13.4c1.5-1.5 2.9-1.5 4.4 0l8.6 8.6c1.5 1.4 1.5 2.9 0 4.3l-13.5 13.4c-1.5 1.5-2.9 1.5-4.4 0.1m38.1-38.1c1.5 1.4 1.5 2.9 0.1 4.3l-13.5 13.4c-1.5 1.5-3 1.5-4.4 0.1l-8.6-8.6c-1.4-1.5-1.4-3 0.1-4.4l13.6-13.5c1.4-1.4 2.8-1.3 4.2 0.1l8.5 8.6m-12.8 109.8c0.8-0.1 1.5 0.3 2.3 1.1l15.8 15.8c1.4 1.4 1.4 2.9 0 4.3l-13.5 13.5c-1.4 1.4-2.8 1.4-4.3 0l-8.6-8.6c-0.1-0.1-0.2-0.2-0.2-0.4h-0.2l-6.8-6.8c-1.4-1.4-1.4-2.8 0-4.3l13.5-13.5c0.6-0.7 1.3-1 2-1.1z"/></symbol></defs><g class="layer" transform="matrix(1.2547 0 0 1.0313 69.329 20.449)" fill="currentColor" stroke="#f00" stroke-opacity=".01845"><use transform="matrix(1.2008 0 0 1.0988 52.687 -2.8301)" x="-100.101" y="-17.793356" width="100%" height="100%" fill="currentColor" stroke="#ff0000" stroke-opacity=".01845" xlink:href="#svg_3"/></g><rect transform="matrix(.81637 -.57754 .81857 .5744 0 0)" x="-17.384" y="21.16" width="33.458" height="7.2874" ry="0" fill="currentColor" stroke-opacity="0"/></svg>
